<?xml version="1.0" encoding="UTF-8" standalone="no"?>
<!DOCTYPE svg PUBLIC "-//W3C//DTD SVG 1.1//EN" "http://www.w3.org/Graphics/SVG/1.1/DTD/svg11.dtd">
<svg width="100%" height="100%" viewBox="0 0 3508 2481" version="1.1" xmlns="http://www.w3.org/2000/svg" xmlns:xlink="http://www.w3.org/1999/xlink" xml:space="preserve" xmlns:serif="http://www.serif.com/" style="fill-rule:evenodd;clip-rule:evenodd;stroke-linecap:round;stroke-linejoin:round;stroke-miterlimit:1.77326;">
    <g transform="matrix(1,0,0,1,-132.179,-15.8615)">
        <path d="M2938.5,757.19L2938.5,1160.97C2938.5,1272.39 2848.04,1362.85 2736.62,1362.85L982.845,1362.85L627.469,1708.95L833.821,1362.85L798.918,1362.85C687.493,1362.85 597.03,1272.39 597.03,1160.97L597.03,757.19C597.03,645.766 687.493,555.303 798.918,555.303L2736.62,555.303C2848.04,555.303 2938.5,645.766 2938.5,757.19Z" style="fill:rgb(245,231,207);stroke:black;stroke-width:23.01px;"/>
    </g>
    <g transform="matrix(0.437213,0,0,0.437213,335.556,468.62)">
        <text x="677.878px" y="952.66px" style="font-family:'AmericanTypewriter-Semibold', 'American Typewriter', serif;font-weight:600;font-size:411.317px;">U<tspan x="958.396px 1220.4px " y="952.66px 952.66px ">nd</tspan>, hast du Heute was</text>
        <g transform="matrix(411.317,0,0,411.317,5088.84,1363.98)">
        </g>
        <text x="677.878px" y="1363.98px" style="font-family:'AmericanTypewriter-Semibold', 'American Typewriter', serif;font-weight:600;font-size:411.317px;">produktiv<tspan x="2640.68px 2857.86px " y="1363.98px 1363.98px ">es</tspan> g<tspan x="3380.23px 3597.41px " y="1363.98px 1363.98px ">em</tspan>ac<tspan x="4415.51px 4677.52px " y="1363.98px 1363.98px ">ht</tspan>?</text>
    </g>
</svg>
