<?xml version="1.0" encoding="UTF-8" standalone="no"?>
<!DOCTYPE svg PUBLIC "-//W3C//DTD SVG 1.1//EN" "http://www.w3.org/Graphics/SVG/1.1/DTD/svg11.dtd">
<svg width="100%" height="100%" viewBox="0 0 3508 2481" version="1.1" xmlns="http://www.w3.org/2000/svg" xmlns:xlink="http://www.w3.org/1999/xlink" xml:space="preserve" xmlns:serif="http://www.serif.com/" style="fill-rule:evenodd;clip-rule:evenodd;stroke-linecap:round;stroke-linejoin:bevel;stroke-miterlimit:9.56395;">
    <g transform="matrix(1,0,0,1,44.4418,210.017)">
        <path d="M3026.58,640.01L3026.58,1199.65C3026.58,1354.08 2901.2,1479.46 2746.76,1479.46L815.964,1479.46C661.528,1479.46 536.146,1354.08 536.146,1199.65L536.146,640.01C536.146,485.574 661.528,360.192 815.964,360.192L2746.76,360.192C2901.2,360.192 3026.58,485.574 3026.58,640.01Z" style="fill:rgb(245,231,207);stroke:black;stroke-width:41.18px;"/>
    </g>
    <g transform="matrix(1,0,0,1,317.032,153.328)">
        <g transform="matrix(547.254,0,0,547.254,2440.87,1147.94)">
        </g>
        <text x="784.88px" y="1147.94px" style="font-family:'AmericanTypewriter-Semibold', 'American Typewriter', serif;font-weight:600;font-size:547.254px;">N<tspan x="1185.47px 1474.42px " y="1147.94px 1147.94px ">ei</tspan>n...</text>
    </g>
</svg>
