<?xml version="1.0" encoding="UTF-8" standalone="no"?>
<!DOCTYPE svg PUBLIC "-//W3C//DTD SVG 1.1//EN" "http://www.w3.org/Graphics/SVG/1.1/DTD/svg11.dtd">
<svg width="100%" height="100%" viewBox="0 0 3508 2481" version="1.1" xmlns="http://www.w3.org/2000/svg" xmlns:xlink="http://www.w3.org/1999/xlink" xml:space="preserve" xmlns:serif="http://www.serif.com/" style="fill-rule:evenodd;clip-rule:evenodd;stroke-linecap:round;stroke-linejoin:bevel;stroke-miterlimit:9.56395;">
    <g transform="matrix(1.13186,0,0,1,-259.702,239.428)">
        <path d="M3026.58,640.01L3026.58,1199.65C3026.58,1354.08 2915.81,1479.46 2779.36,1479.46L783.365,1479.46C646.921,1479.46 536.146,1354.08 536.146,1199.65L536.146,640.01C536.146,485.574 646.921,360.192 783.365,360.192L2779.36,360.192C2915.81,360.192 3026.58,485.574 3026.58,640.01Z" style="fill:rgb(245,231,207);stroke:black;stroke-width:38.56px;"/>
    </g>
    <g transform="matrix(1.05989,0,0,1.05989,-296.348,22.6433)">
        <g transform="matrix(259.461,0,0,259.461,1243.09,1147.94)">
        </g>
        <g transform="matrix(259.461,0,0,259.461,1325.2,1147.94)">
        </g>
        <text x="784.88px" y="1147.94px" style="font-family:'AmericanTypewriter-Semibold', 'American Typewriter', serif;font-weight:600;font-size:259.461px;">Ic<tspan x="1012.95px 1178.22px " y="1147.94px 1147.94px ">h </tspan>ﬁnde sc<tspan x="2178.18px 2343.46px " y="1147.94px 1147.94px ">ho</tspan>n, ja..</text>
    </g>
</svg>
